<?xml version="1.0" encoding="UTF-8"?>
<svg id="Camada_1" xmlns="http://www.w3.org/2000/svg" version="1.1" viewBox="0 0 250 250">
  <!-- Generator: Adobe Illustrator 30.1.0, SVG Export Plug-In . SVG Version: 2.1.1 Build 136)  -->
  <defs>
    <style>
      .st0 {
        fill: #fff;
      }

      .st1 {
        display: none;
      }
    </style>
  </defs>
  <g class="st1">
    <g>
      <path class="st0" d="M101.62,49.07v35.56c0,6.04-1.64,10.66-4.91,13.86-3.27,3.2-7.78,4.8-13.52,4.8-6.09,0-10.95-1.7-14.58-5.1-3.63-3.4-5.44-8.3-5.44-14.69h14.77c.05,4.21,1.6,6.32,4.64,6.32,2.74,0,4.11-1.73,4.11-5.18v-35.56h14.92Z"/>
      <path class="st0" d="M186.14,49.07l-13.17,53.68h-18.35l-7.39-32.89-7.54,32.89h-18.35l-13.02-53.68h16.14l6.24,36.7,8.45-36.7h16.37l8.22,36.39,6.24-36.39h16.14Z"/>
      <path class="st0" d="M78.9,203.1l-5.94-8.91c-1.67.3-3.38.46-5.1.46-5.03,0-9.65-1.18-13.86-3.54-4.21-2.36-7.55-5.63-10.01-9.82-2.46-4.19-3.69-8.92-3.69-14.2s1.23-10.01,3.69-14.2c2.46-4.19,5.8-7.45,10.01-9.78,4.21-2.33,8.83-3.5,13.86-3.5s9.71,1.17,13.9,3.5c4.19,2.34,7.5,5.6,9.94,9.78s3.65,8.92,3.65,14.2c0,4.42-.89,8.49-2.67,12.22-1.78,3.73-4.21,6.84-7.31,9.33l11.34,14.47h-17.82ZM58.8,177.1c2.18,2.46,5.2,3.69,9.06,3.69s6.81-1.24,9.02-3.73c2.21-2.49,3.31-5.81,3.31-9.97s-1.1-7.63-3.31-10.09c-2.21-2.46-5.22-3.69-9.02-3.69s-6.88,1.23-9.06,3.69c-2.18,2.46-3.27,5.83-3.27,10.09s1.09,7.55,3.27,10.01Z"/>
      <path class="st0" d="M145.82,151.4v42.71h-15v-6.09c-1.27,1.93-3.02,3.49-5.25,4.68-2.23,1.19-4.8,1.79-7.69,1.79-4.98,0-8.9-1.64-11.76-4.91-2.87-3.27-4.3-7.73-4.3-13.36v-24.82h14.85v22.92c0,2.44.65,4.35,1.94,5.75,1.29,1.4,3.01,2.09,5.14,2.09s3.91-.7,5.18-2.09c1.27-1.4,1.9-3.31,1.9-5.75v-22.92h15Z"/>
      <path class="st0" d="M155.53,145.27c-1.6-1.45-2.4-3.26-2.4-5.44s.8-4.09,2.4-5.56c1.6-1.47,3.72-2.21,6.36-2.21s4.68.74,6.28,2.21c1.6,1.47,2.4,3.33,2.4,5.56s-.8,4-2.4,5.44c-1.6,1.45-3.69,2.17-6.28,2.17s-4.76-.72-6.36-2.17ZM169.27,151.4v42.71h-14.92v-42.71h14.92Z"/>
      <path class="st0" d="M191.96,181.7h18.2v12.41h-34.64v-11.8l16.98-18.5h-16.83v-12.41h33.88v11.8l-17.59,18.5Z"/>
    </g>
  </g>
  <g>
    <path d="M23.16,124l15.64-35.44h9.87l15.69,35.44h-10.43l-12.25-30.53h3.95l-12.25,30.53h-10.23ZM31.72,117.11l2.58-7.39h17.32l2.58,7.39h-22.48Z"/>
    <path d="M76.12,124l-15.14-35.44h10.83l12.76,30.68h-6.38l13.06-30.68h9.92l-15.19,35.44h-9.87Z"/>
    <path d="M97.79,124l15.64-35.44h9.87l15.69,35.44h-10.43l-12.25-30.53h3.95l-12.25,30.53h-10.23ZM106.34,117.11l2.58-7.39h17.32l2.58,7.39h-22.48Z"/>
    <path d="M141.83,124v-35.44h10.03v27.49h16.91v7.95h-26.94Z"/>
    <path d="M172.72,124v-35.44h10.02v35.44h-10.02Z"/>
    <path d="M185.63,124l15.64-35.44h9.87l15.7,35.44h-10.43l-12.25-30.53h3.95l-12.25,30.53h-10.23ZM194.19,117.11l2.58-7.39h17.31l2.58,7.39h-22.48Z"/>
  </g>
  <g>
    <path d="M87.66,178.01c-2.7,0-5.21-.46-7.52-1.37-2.31-.91-4.31-2.18-6-3.82-1.69-1.64-3-3.55-3.95-5.75-.95-2.19-1.42-4.59-1.42-7.19s.47-4.99,1.42-7.19c.94-2.19,2.26-4.11,3.95-5.75,1.69-1.64,3.68-2.91,5.97-3.82,2.29-.91,4.81-1.37,7.54-1.37s5.19.45,7.47,1.34,4.27,2.16,5.97,3.8c1.7,1.64,3.02,3.55,3.95,5.75.93,2.2,1.39,4.61,1.39,7.24s-.46,5.05-1.39,7.24c-.93,2.19-2.25,4.11-3.95,5.75-1.71,1.64-3.7,2.9-5.97,3.8s-4.77,1.34-7.47,1.34ZM87.66,173.51c1.96,0,3.77-.34,5.44-1.01,1.67-.67,3.12-1.64,4.35-2.89,1.23-1.25,2.19-2.7,2.89-4.35.69-1.65,1.04-3.44,1.04-5.37s-.35-3.76-1.04-5.42c-.69-1.65-1.65-3.1-2.89-4.33-1.23-1.23-2.68-2.18-4.35-2.86-1.67-.67-3.49-1.01-5.44-1.01s-3.82.34-5.49,1.01c-1.67.68-3.13,1.63-4.38,2.86-1.25,1.23-2.22,2.68-2.91,4.33-.69,1.65-1.04,3.46-1.04,5.42s.35,3.71,1.04,5.37c.69,1.65,1.66,3.11,2.91,4.35,1.25,1.25,2.71,2.21,4.38,2.89,1.67.68,3.5,1.01,5.49,1.01ZM99.26,185c-1.18,0-2.31-.14-3.39-.43-1.08-.29-2.16-.74-3.24-1.37-1.08-.62-2.19-1.44-3.34-2.43-1.15-1-2.4-2.22-3.75-3.67l5.42-1.42c1.01,1.25,1.98,2.27,2.91,3.06.93.79,1.85,1.37,2.76,1.72s1.81.53,2.68.53c2.53,0,4.69-1.01,6.48-3.04l2.38,2.89c-2.3,2.77-5.27,4.15-8.91,4.15Z"/>
    <path d="M124.77,177.91c-2.3,0-4.31-.42-6.05-1.27-1.74-.84-3.09-2.13-4.05-3.87s-1.44-3.92-1.44-6.56v-15.44h4.86v14.89c0,2.63.63,4.61,1.9,5.92,1.27,1.32,3.05,1.97,5.34,1.97,1.69,0,3.16-.35,4.4-1.04,1.25-.69,2.21-1.7,2.89-3.04.67-1.33,1.01-2.94,1.01-4.83v-13.87h4.86v26.83h-4.61v-7.24l.76,1.92c-.88,1.79-2.19,3.17-3.95,4.15s-3.73,1.47-5.92,1.47Z"/>
    <path d="M150.19,145.61c-.95,0-1.73-.3-2.35-.91s-.94-1.35-.94-2.23.31-1.67.94-2.28c.62-.61,1.41-.91,2.35-.91s1.73.3,2.35.89c.62.59.94,1.33.94,2.2s-.3,1.68-.91,2.3c-.61.62-1.4.94-2.38.94ZM147.76,177.61v-26.83h4.86v26.83h-4.86Z"/>
    <path d="M159.3,177.61v-3.14l17.21-21.37.96,1.67h-17.87v-4h21.77v3.19l-17.21,21.31-1.11-1.67h18.73v4h-22.48Z"/>
  </g>
</svg>