<?xml version="1.0" encoding="UTF-8"?>
<svg id="Camada_1" xmlns="http://www.w3.org/2000/svg" version="1.1" viewBox="0 0 500 500">
  <!-- Generator: Adobe Illustrator 30.5.1, SVG Export Plug-In . SVG Version: 2.1.4 Build 3)  -->
  <defs>
    <style>
      .st0 {
        fill: #4d6bfe;
      }
    </style>
  </defs>
  <path class="st0" d="M435.32,143.14c-6.24-1.12-11.87,15.99-28.34,14.98-12.14-.74-23.36,3.27-31.93,12.24-3.2-13.98-11.1-19.75-23.6-24.83-13.18-5.36-11.1-17.02-15.92-22.72-8.45-9.98-29.94,44.83,7.82,75.95,2.72,2.24,5.78,4.13,7.98,7.25l-5.98,17.07c-13.03-4.74-23.99-12.85-33.5-23-12.38-13.22-24.45-26.22-39.88-36.03-5.45-3.47-10.66-8.77-9.57-15.82,1.08-7.05,6.97-11.73,13.36-14.84-.02-2.16-2.6-3.91-4.73-4.39-22.48-5.09-46.26,10.9-55.15,10.34l-26.92-1.7c-20.26.4-39.97,3.89-56.99,15.4-29.76,20.14-46.47,53.96-46.1,89.94.37,34.86,12.71,67.42,36.35,92.77,15.39,16.5,33.16,29.44,54.18,37.72,23.53,9.28,47.79,10.45,72.78,7.12,21.39-2.85,40.48-11.26,57.22-26.01,16.06,7.23,39.57,7.85,54.92,2.86,4.69-1.52,8.21-9.45,3.76-12.38-7.71-5.09-16.69-7.69-25.14-11.18-2.49-1.03-4.83-1.12-6.39-4l6.85-7.51c11.99-13.15,22.22-27.14,29.1-43.77,7.63-18.44,12.3-37.35,14.21-57.35.26-2.75-2.14-7.68.85-9.73,34.48-3.6,55.7-28.94,55.62-63.25,0-2.78-3.13-4.82-4.88-5.13ZM254.8,341.17c-11.82-9.54-44.52-34.79-52.49-29.47-4.47,2.98-1,13.35,4.19,20.83,1.32,1.9,2.22,4.42,1.35,6.65-2.45,6.24-17.59,6.42-27.64,1.4-42.11-21.02-66.79-65.87-70.41-112.54-.24-3.1-.98-8.72,2.05-10.13,6.63-3.08,14.69-3.43,22.25-2.74,30.73,2.79,58.23,16.23,80.93,36.8,12.39,11.22,21.66,24.16,31.03,38.03,15.11,23.47,32.09,45.86,55.25,61.66-17.33,2.12-33.45.07-46.52-10.48ZM271.98,247.89c0-2.43,1.97-4.4,4.4-4.4s4.4,1.97,4.4,4.4-1.97,4.4-4.4,4.4-4.4-1.97-4.4-4.4ZM297.46,270.24c-15.39-10.88-4.09-21.41-9.53-28.62-5.67-7.51-16.81-2.97-17.88-8.81-.81-4.41,4.24-7.19,8.42-7.45,15.03-.95,27.48,13.49,35.8,26.42,3.24,5.04,6.54,9.89,7.59,16.04-6.45,6.78-16.71,7.84-24.39,2.42Z"/>
</svg>