<?xml version="1.0" encoding="UTF-8"?>
<svg id="Camada_1" xmlns="http://www.w3.org/2000/svg" version="1.1" viewBox="0 0 453 453">
  <!-- Generator: Adobe Illustrator 30.5.1, SVG Export Plug-In . SVG Version: 2.1.4 Build 3)  -->
  <defs>
    <style>
      .st0 {
        fill: #f45036;
      }

      .st1 {
        fill: #fefefe;
      }
    </style>
  </defs>

  <g>
    <path class="st0" d="M251.67,0c103.8,5.06,199.26,98.29,201.33,203.35v50.33c-6.37,102.84-98.84,197.34-203.35,199.32h-50.33C95.98,446.6,5.11,355.41,0,251.67v-52.35C6.35,96.23,98.84,2.44,203.35,0h48.32Z"/>
    <path class="st1" d="M286.92,278.53l.23-97.15c.08-33.19-29.12-58.48-60.62-58.53-32.91-.05-60.07,26.74-60.96,59.35s24.54,62.06,58.32,62.5l35.46.47-.03,36.62-29.83.02c-34.44.02-65.78-16.13-84.12-42.56-20.1-28.97-23.75-64.93-9.1-96.98,18.95-41.47,61.99-64.73,107.23-57.01,41.53,7.09,78.06,42.57,80.23,87.86l.28,102.83c.12,43.58-31.75,80.31-73.05,91.47-33.74,9.12-67.39-.85-92.26-25.34l25.89-26.03c17.89,17.14,41.58,22.95,64.87,13.57,18.89-7.6,37.39-26.49,37.45-51.09Z"/>
  </g>
</svg>