<?xml version="1.0" encoding="UTF-8"?>
<svg id="Camada_1" xmlns="http://www.w3.org/2000/svg" version="1.1" viewBox="0 0 500 500">
  <!-- Generator: Adobe Illustrator 30.2.1, SVG Export Plug-In . SVG Version: 2.1.1 Build 1)  -->
  <defs>
    <style>
      .st0 {
        fill: #3b82f6;
      }
    </style>
  </defs>
  <path class="st0" d="M240.63,441.03l-2.35.44-1.23-.46c-.85.79-2.08.85-3.08-.06l-1.67.6-4.51-2.35c-.92-.48-2.08-1.65-2.99-2.22l-.98-.61c-.19-.12.06-.65.2-1.11l-1.78-2.04c.08-.96-.12-1.65-.73-2.36-.73-7.03,1.11-7.56,1.42-9.39.53-3.14,1.96-3.92,3.96-9.17.97-2.53,2.9-4.86,3.62-7.33.63-2.15,1.83-3.91,2.66-5.86.51-1.2.93-2.45,1.51-3.58,2.78-5.45,1.94-5.49,5.42-10.52.28-.41.31-1.68.53-2.14l3.15-6.46c.42-.86.54-1.65.94-2.55l2.59-5.87c1.08-2.45,2.3-4.74,3.51-7.2l2.98-6.07c.32-.64.36-1.57.72-2.2,2.62-4.64,3.09-7.96,5.38-10.95,1.01-1.33,1.3-2.72,1.84-3.96l3.87-8.88c.73-1.67,1.43-2.92,1.33-5-.22-4.4-.93-2.7-4.29-5.64-.66.35-2.04,1.07-2.55,1.53l-4.86,4.36c-3.17,2.84-3.18,4.08-5.77,5.48-.45.24-1.08,1.16-1.42,1.55l-1.93,2.22c-3.62,4.17-4.89,4.51-7.53,7.45-1.16,1.3-2.48,2.52-3.71,3.77l-1.9,1.94-12.7,12.83c-.35.36-1.36.87-1.65,1.08-.66,1.48-2.08,2.38-3.14,3.49s-2.24,2.29-3.41,3.32c-.47.41-1.16,1.51-1.68,2.02l-12.15,12.03c-.72.71-1.48,1.26-2.12,2.04-.87,1.06-1.82,2.14-2.76,3.05l-4.1,3.98c-1.69,1.64-4.49,3.44-6.82,3.55-.99.05-2.1-.66-3,.17l-2.78-.7c-2.51-.63-4.06-2.73-5.92-4.43-.64-.58-.93-.89-1.09-1.64-.55-2.58-2.59-2.91-1.35-10.52l1.45-2.63c.65-1.18,1.07-2.26,1.99-3.3l3.75-4.27,1.71-2.59c.51-.78,1.03-1.24,2.08-1.8l1.69-2.72c1.23-1.99,2.69-3.53,4.3-5.26.87-.93,1.53-2.5,2.47-3.57l3.56-4.07,1.85-2.76c.48-.72,1.46-1.55,1.99-2.21l5.96-7.32c1.5-1.84,2.68-4.12,4.18-6.1s3.43-3.61,4.72-5.88c1.2-2.12,3.08-3.76,4.43-5.69l3.37-4.84,2.36-3.08,2.35-3.1c1.37-1.8,2.6-3.75,3.91-5.75,2.91-4.44.21,1.09,4.54-5.83,2.14-3.42,4.34-6.77,6.6-9.97.54-.39,1.66-1.24,2.01-1.83l2.63-4.45c1.35-2.28,2.7-4.48,4.2-6.7,2.9-4.31.15-1.87,3.98-8.06,1.83-2.97,2.39-5,3.01-6.19l1.12-2.18,1.37-3.58c2.32-6.06,2.73-6.36,1.39-12.14-.07-.31.03-.99-.16-1.16l-1.12-1c-.19-.17.47-.92.55-1.17.1-.31-.56-.57-1.27-.83-.51-.19-.88-1.35-1.13-1.84l-2.85-2.37c-1.08-.9-2.5-.84-3.6-1.26-1.21-.45-2.89-.88-4.2-.5l-1.32-1.01c-.27-.21-.99.87-1.37.88-1.64.04-4.61.25-6.46.22l-2.51-.04-5.81.98-2.14-.06-4.57.81c-3.34.59-2.27-1.47-3.12-.31l-.75,1.03c-.17-.23-5.4-.49-5.14,0l-2.35-1.14-.86,1.17c-.33.45-2.52-1.15-2.67-.98l-.86,1.01c-3.16-2.88-1.98.89-5.7-1.67-.54.09-1.64.17-2.15.02l-2.92-.87c-2.3,1.25-2.24-2.17-7.18-1.83l-4.1-2.67c-2.13-1.38-4.34-4.05-5.89-5.94-.14-.77-.6-2.08-1.04-2.79,3.69-5.97,1.37-4.57,5.8-5.89l2.02-.6,4.97-1.03c.66-.14,1.45-.01,2.26.22l.68-.86c.17-.21,1.08.27,1.33.17l1.51-.6c.33-.13.95.38,1.44.59l.54-.87c.14-.22.63-.22,1.06-.2l2.69.1c.13-.13.38-.94.59-.9l1.34.26,2.56-1.09c1.22.12,2.03.06,3.02-.28l5.44-1.84,4.32-1.47c.17-.06.67.31.84.38.23.1.56-.67.75-.79.51-.19,1.3-.58,1.74-.72l5.64-1.78c1.41-.45,1.73-.43,3.73-1.5,1.47-.79,3.7-.93,5.22-1.41,1.13-.35,2.11-2.39,3.71-1.01l.84-1.17c.15-.21.81-.13,1.07-.24l1.5-.65,15.6-7.43c.6-.29,1.46-.42,1.95-.66l4.46-2.2,1.46-.54,14.62-7.08c.81-.39,2.19-.41,2.94-.41.24-1.45,2.14-1.46,3.08-1.84,4.66-1.86-.16-.44,5.04-2.45,3.37-1.3,6.59-3.07,10.02-4.69,1.29-.61,2.63-1.25,4.01-.98.54-.36,1.4-.87,1.97-1.02l3.45-.91,2.22-.73c1.72-.56-1.48-.02,1.68-.76l3.32-.78c.2-.05.83.16.96,0l.76-.87c.18-.21.85.65,1.11.55l1.39-.55c.28-.11,1.19.47,1.41.26l1.07-1.02,2.45-.12c.83-.04,3.97.54,5.73-.22,2.45,1.23,1.58-.11,3.03-.01l2.25.16c3.87.27,6.03,1.65,8.31.91.33.2,1.22,1.12,1.62,1.59.24.28,1.28.09,1.68.14,1.17.63,3.3,1.59,4.36,2.41l3.17,2.45c1.19.92,3.33,2.32,4.19,3.45,2.01,2.63,4.01,4.22,6.48,6.41,1.48,1.31,2.41,3.55,4.69,4.7,1.96.99,3.87,2.49,5.75,3.7l4.27,2.73,4.13,2.69,2.68,1.87c2.33,1.62,4.55,2.95,7.18,3.76l3.25.99,2.21,1.44c.6,1.31,1.44,2.58,2.31,3.88l2.36,3.55c.33.5.47,1.79.73,2.33l1.11,2.31,2.33,5.4c-.26,7.27,2.33,7.72.28,15.23.69,2.04-.5,4.87-.74,6.37l-.8,5.05c-.69,4.38-1.33,7.1-2.53,11.44l-.8,2.9c-.51,1.84-.91,3.68-1.48,5.46l-1.88,5.84c-.81,2.53-2.11,6.77-3.66,9-.73,1.04-.86,1.57-.69,2.94-3.77,5.33.51,1.55-3.83,7.89-1.17,1.7-1.96,3.49-2.77,5.32l-3.93,8.95-1.73,4.08c-.62,1.45-1.61,3.33-1.8,4.67l-.67,4.63c-.38,2.65-.62,5.26-1.37,7.92-.09.33-1.28,6.83-1.27,6.11l-.3,16.19c-.02,1.15-.02,2,0,3.04l.29,12.95c.02,1.07.32,1.79-.04,2.95-.31.97.64,2.72.65,3.71l.21,12.31c.02.92,0,1.7-.03,2.79l-.24,6.9c-.08,2.22-.78,4.12-.74,6.42.07,3.64.25,7.42-.23,10.91-.17,1.25-.39,2.12-.36,3.3.03.93-.18,2.21-.23,3.28-.24,4.94,1.03,4.61-1.61,10.04-1.23,2.53-4.59,4.24-7.27,4.4l-2.84.17c-4.48-2.33-5.89-3.6-8.98-7.53-.39-.54-.18-2.23-1.44-2.23.25-.81.31-1.25.19-2.13-.6-4.2.61-5.35-.86-6.47l-.03-2.73c-.05-4.23-.85-2.13-1.07-9.54l-.06-1.9c-.01-.5-.54-1.7-.55-2.3l-.11-7.09c-.43-.18-.8-.28-.79-.41.52-6.79-1.04-6.39-.75-11.4-.97-3.02-1.04-3.52-.85-7.01.08-1.48-.37-2.54-.72-4.02-.4-1.69.51-4.01-.04-5.76l-.81-2.58c-.07-.21-.14-8.8-1.7-10.54l-.27-1.41c-2.43-2.59-.13-1.58-4.2-5.38l-2.03,2.01c-2.28-.58-3.01,1.47-3.79,3.15-.91,1.97-1.71,3.74-2.18,5.68l-.7,2.95c-.38,1.61-.7,3.36-.68,5.04,0,.56-.6,1.77-.67,2.34l-.43,3.78-.44,3.09c-.11.78-1.36,5.15-1.56,6.42l-.85,5.28-.83,4.9-2.04,10.9c-.87,4.65-1.05,2.97-1.57,8.18-.32,3.25-1.67,7.87-1.63,9.4.08,2.95-1.11,5.01-1.4,6.87l-.93,5.83c-.61,3.84-1.14,5-1.61,8.05l-.78,5.05c-.32,2.05-.62,5.19-1.66,6.99l-2.81,4.87c-1.87,3.24-4.71,4.89-8.42,4.94-.32-.11-1.27-.73-1.44-.48l-.74,1.11c-5.32-4.1-4.95-1.63-8.8-7.5-.83-1.27-2.28-2.25-.99-3.98l-.83-3.63,1.02-5.42c.25-1.34.76-2.45.61-3.94s.42-3.41.61-4.73c.38-2.65-.17-4.59.92-7.53.53-3.4-.7-3.28.96-6.57-.26-.91-.34-1.84-.17-2.76l.9-4.85c.24-1.31-.04-3.28.31-4.51.41-1.43.34-2.23.46-3.36l.92-8.72.67-3.97.95-8.56.73-5.55c.48-3.66.33-7.22.93-10.82l.78-4.62c.33-1.97.3-4.17.18-6.21-.06-1.07-.78-2.92-1.08-4.01l-.65-2.37c-.23.18-1.69.35-2.11.7l-2.3,1.98c-.45.39-1.25,1.44-1.52,2.02-1.21,2.51-2.43,4.7-3.89,6.98l-2.81,4.39-1.57,2.92c-.93,1.74-2.45,3.42-3.25,5.21-.61,1.36-1.04,2.7-1.95,4.22l-4.24,7.07c-1.39,2.32-2.85,4.43-4.13,6.78l-1.59,2.89c-.87,1.58-1.85,3.06-2.59,4.63-1.31,2.77-2.93,5.48-4.58,8.22l-5.44,9.04-3.73,6.29c-1.92,3.23-1.24,3.29-2.99,6.09l-2.73,4.37-5.51,9.33-1.54,2.69c-.3.53-3.66,4.58-4.77,5.06Z"/>
  <path class="st0" d="M124.55,313.74c-2.8-3.2-1.43-2.12-4.02-6-.9-1.34-2.42-2.94-2.88-4.42-.14-.45.1-1.77-.27-2.15-1.18-1.24-1.96-3.85-2.66-5.6l-2.83-7.05-1.14-2.95c-.48-1.25-1-2.7-1.37-3.98l-2.19-7.5c-.91-3.12-1.67-6.35-2.38-9.67l-1.15-5.36-.55-2.48c-.32-1.43-.79-3.34-.93-4.6l-.77-7.03-.62-5.2-.85-4.96c-.67-3.9-2.67-4.08-.78-7.13-.64-.39-1.42-.82-1.69-1.19s-.17-1.41-.17-1.94c-.92-1.03-1.47-2.28-1.91-3.69-.71-2.32-2.6-4.27-3.04-6.46-.62-3.09-2.28-5.59-4.22-8.09-2.04-2.64-3.23-6.02-5.07-8.91-2.26-3.55-2.39-1.91-2.56-4.59l-2.65-2.04c-.46-.36-.63-1.31-.49-2.15l-2.81-2.45c-.92-.8-1.45-3.15-2.33-4.17-2.17-2.49-3.97-4.9-5.82-7.57l-2.4-3.47-.98-1.45-2.03-3.08-1.63-1.13c-1.26-4.59-3.21-2.62-2.9-6.8-2.53-1.76-.64-1.35-4.67-6.51-1.48-1.9-2.64-4.1-3.74-6.27-2.69-5.34-3.29-4.86-5.38-8.95s-3.17-3.71-3.62-8.83c-.35-3.98,3.99-9.75,10.54-9.69,3.21.03,5.36,1.37,7.78,3.19,2.71,2.05,3.44,1.94,5.88,5.42,2.17,3.08,4.37,6.07,6.93,8.83l2.04,2.2c2.32,2.49,3.44,4.43,5.54,6.81l4.35,4.93,2.32,2.65,2.33,3.06,4.02,4.78c.99,1.18,1.99,2.58,2.99,3.65.94,1.01,2.12,1.86,2.91,2.94l3.51,4.79c2.42,3.29,2.27,2.66,4.32,4.83l1.76,1.86c4.96,1.79,2.15,3.04,8.48,2.96l1.69-3.11c.46-.84.13-2.88.08-3.97-.12-2.51-.71-4.56-1.49-6.82-1.93-5.63-2.98-3.51-3.85-8.79-.32-.62-.63-1.36-.91-2.21-.84-2.55-2.65-5.23-3.69-7.53-.44-3.46-.81-1.21-1.11-4.3-1.26-1.84-2.68-4.93-3.52-6.91-1.46-3.42-3.36-6.53-3.96-10.61-.84-.86-1.79-1.98-2.26-3.15l-.91-2.25c-.88-2.17-1.87-3.98-2.68-6.21l-.92-2.52-1.34-2.89c-1.05-2.25-2.17-4.39-3.07-6.57-1.85-4.48.19-1.29-3.7-8.13-.5-.88-.64-1.6-.99-2.51l-2.3-5.95c-.35-.91-2.92-7.18-3.1-6.8l.56-1.18c-.81-2.03-1.57-4.6-.89-6.79l1.05-3.35c.1-.32.2-1.13.27-1.47.07-.38,1.23-.19,1.55-.44,1.55-1.21,3.12-2.58,4.89-2.96,2.97-.65,5.68-.48,8.56.58,4.29,1.57,5.7,5.12,7.46,8.38l5.43,10.09,2.8,5.6,1.41,2.79,2.01,3.8,1.47,2.63,1.88,3.6,2.57,4.87,2.2,4.96c1.94,4.37,4.25,8.39,6.48,12.63l7.91,15,6.11,11.8c.69,1.33,2.6,2.4,3.29,3.81l1.12,2.3s.62-.2.84-.28c.85-.28.7,1.38,2.01,1.3,1.16-.06,1.84-4.09,1.66-6.59s.25-5.33-.15-7.79c-.21-1.25-.35-2.35-.43-3.59l-.29-4.56c-.07-1.12.14-2.19.53-3.19-.4-.33-1.17-.8-1.18-1.22s.19-1.49.13-1.92c-.14-.92-.16-2.36-.14-3.28.02-1.05-.25-2.28.27-3.39-.28-.53-.94-1.76-.93-2.38l.06-3.41c0-.42-.55-1.14-.52-1.52.04-.45.78-1.46.6-1.87l-.62-1.47.6-1.84c-.34-.62-.97-1.73-.96-2.38l.06-3.44c.03-1.49-1.34-.49.1-3.36-.55-.95-.66-2.17-.08-3.14l-1.49-4.63.72-1.31c-.41-1.23-.49-2.14-.58-3.37l-.56-7.01-.32-5.51-.43-6.17-.36-6.64c-.19-3.63-.72-3.2-.79-6.04-.05-1.95.02-3.95-.16-5.84l-.34-3.63c-.26-2.75-.14-7.49,2.78-9.27l1.4-2.43c1.95.09,3.31-.53,4.51-1.59l3.96-.38c2.65-.25,6.95.72,9.15,2.74,1.38,1.27,2.65,2.47,3.26,4.25.2.6,1.3,1.69,1.41,2.31l.87,4.62.5,3.44,1.74,9.79.91,6.6.9,4.81.75,4.84.81,4.84,1.45,9.63c.4,2.68,1.21,5.47,1.41,8.23.15,2.01.38,3.64.73,5.51l1.02,5.41.58,3.09.63,5.68.89,4.06.62,4.54c.2,1.48.92,5.49,1.15,6.92l1.03,6.51.65,4.25c.3,1.96.68,4.03,2.44,5.14l.51,1.91c1.08.27,1.8.54,2.87,1.08-.01.13.05-.64.06-.81l2.86-.18c2.56-4.22,3.22-8.99,4.08-13.77l.67-3.7.77-4.18,1.93-9.67.62-3.12,1.72-8.77.84-5.13.72-3.59.78-3.97.98-4.95.69-3.32.88-5.05.61-3.52c.11-.64.61-1.93.81-2.54.17-2.19.95-7.66,1.64-9.44.9-2.32.65-4.59,1.17-6.95l.66-3.03.92-3.93c1.28-5.45,2.73-5.75,6.18-9.3,7.76-1.1,2.45-2.01,8.32-.91,2.91.54,4.52,1.46,6.72,3.57.82.78,2.01,1.29,2.66,2.68,2.56,5.57,1.11,3.46,1.51,9.58.21,3.22-.34,5.99-.5,9.23l-.4,7.58c-.05.98-.28,1.76-.36,2.69l-.21,2.49c-.22,2.68-.46,5.18-.62,7.79l-.46,7.56c-.09,1.42-.68,2.8-.68,4.22v7.89c0,.74-.55,1.94-.57,2.71l-.55,14.9c-.12,3.12-.47,5.99-.53,9.13l-.09,4.51c-.04,2.25-.6,4.42-.63,6.36l-.26,20.94-.16,6.09c-.01.39-.29,1.22-.45,1.5-.2.35-1.43-.28-1.79-.11-.77.36-1.97,1.43-2.95,1.43-1.31,0-1.97.64-2.76,1.49l-3.9.46c-.25.28-.86,1.46-1.22,1.4-1.24-.39-3.09.59-4.15,1.01-1.51.6-3.17,1.25-4.35,1.95l-1.89-.22c-.38-.04-.73.66-1.11,1.24-1.46,2.26-3.12-1.35-4.84,1.28-.27.42-.61,1.16-.94,1.1l-1.71-.27c-1.03-.16-2.47,1.55-3.41,1.66s-2.12-.03-2.98.44l-2.64.42-.53.94c.21-.38-10.62-.51-13.25.03-1.59.33-3.79,1.36-5.26,1.76-2.95,2.72-.41-.31-4.66,2.31-1.43.88-2.68,1.71-3.55,3.37l-1.84-.13c-.44,1.48-1.21,3.11-2.29,4.56-3.24,4.35-1.13.3-3.54,7.17-.33.94-1.04,2.98-.97,3.96l.42,6.14c.2,2.84.99,5.46,2.62,7.53-.78,1.04,2.32,5.69,2.72,6.08l2.77,2.73c.16.16-.04.99-.03,1.22,0,.29,1.04.05,1.42.02.74.81,1.87,2.29,2.7,2.97l1.93,1.57c.28.22,8.96,4.7,8.91,4.69l6.8,1.7c1.18.3,2.17-.1,3.28,1.02l5,.31c2.57.16,4.93.33,7.55.26,1.38-.03,2.86.25,4.2.29,5.96.22,11.77.21,17.69,0,1.91-.07,6.66-2.21,11.57-1.48-.28,2.36-1.56,4.2-2.97,5.67-.05,2.77-3.15,8.1-4.33,10.25-2.62,4.78-.21,3.39-3.89,7.95-3.06,3.8-2.41,3.64-5.24,7.68-1.16,1.66-2.25,3.01-3,4.97-.35.91-1.6,1.66-2.11,2.36l-3.01,4.11-2.49,3.37-2.63,3.49c-2.7,3.59-2.52,2.7-5.27,6.51l-2.79,3.86c-1.5,2.08-2.91,3.94-4.51,5.9l-5.68,6.96c-3.57,4.37-3.63,6.91-8.1,6.9l-25.38-.04c-6.84,2.84-8.02,1.97-13.53-.4-8.26-3.54,1.43,1.34-5.15-2.89l-2.34-1.51-2.31-1.47c-1.75-1.11-3.17-3-4.53-4.56l-2.57-2.94Z"/>
  <path class="st0" d="M136.09,351.43c-.86.61-2.09,1.55-2.87,1.96-1.91,1.01-3.81-.59-5.13-1.39-1.42-.86-3.11-1.82-4.36-2.48-.52-.28-1.93-.38-2.37-.79l-2.46-2.32c-1.46-1.37-3.87-2.24-5.23-3.83-1.44-1.68-3.27-3.14-3.93-3.89l-2.77-3.19c-.83-.96-1.77-2.11-2.3-3.27-3.99-3.98-3.9-5.87-6.97-9.93-2.87-3.79-9.04-14.67-3.46-18.06,3.39.01,6.26-1.4,7.66,2.67l2.72,7.9,2.56,3.86,1.63,3.42,1.69,1.06c.42,1.28.97,2.3,1.78,3.21l1.62,1.83c.93,1.05,1.79,2.06,2.83,3.03,4.05,3.76,2.81,3.81,6.53,5.7,1.02.52,2.23,2.23,3.26,2.66,1.58.66,2.48,1.24,3.83,2.13l3.23,2.13c.61.4,1.98.8,2.81,1.2.34,2.05.27,4.33-.29,6.4Z"/>
  <path class="st0" d="M102.73,346.11c6.95,7.24,14.13,7.05,13.09,13.1l-.52,3.03c-1.69.5-4.66,1.96-6.02,1.15-2.99-1.77-5.76-3.13-8.19-5.31l-3.4-3.06c-2.68-2.41-7.38-7.1-9.11-9.76l-6.75-10.4c-3.43-5.28-5.01-10.36-6.82-16.5-.6-2.03-.17-4,1.48-5.18l-.27-1.96c1.05-.05,2.39-.18,3.13-.08l2.72.36c2.16.29,3.15,2.53,3.4,4.3l.31,2.17c.16,1.08.64,2.08.97,3.1l1.26,3.84c1.05,3.2,3.47,5.81,4.48,8.59.5,1.39.54,1.69,1.8,2.76,1.08.92,1.96,2.8,2.98,3.94l2.36,2.66,3.12,3.25Z"/>
  <path class="st0" d="M439.02,257.52c-1.57,0-3.44-1.39-2.87-2.98.3-.82.54-2.39.88-3.02,2.6-3.83,0-1.74,3.08-7.44-.24-3.84,1.76-3.44,2.25-7.06.26-1.92-.02-4.23.38-6.04,1.49-6.84.02-7.42-.06-8.61l-.32-4.83c.22,3.33-2.63-13.27-3.32-10.81l-.14-1.53-1.85-3.94c2.57-1.05,2.41-3.98,4.67-4.49,3.12-.71,5.73,1.95,6.41,4.48.38,1.42.77,2.2,1.35,3.45.85,1.83.88,4.43,1.52,6.46,1.5,4.8-.27,2.32,1.54,10.21.28,1.23.28,2.94.46,4.46.15,1.32-.32,2.6-.56,3.85-.28,1.44.05,3.22.11,4.97.03.84-.53,2.2-.64,2.98-.59,4.56-1.79,8.6-3.19,12.88-.52,1.59-.38,3.07-1.69,4.53-.63.7-1.13,2.63-1.8,3.58l-4.6.98c-.28.06-1.36-.37-1.58-.54-.28-.22-.09-.72-.04-1.53Z"/>
  <path class="st0" d="M429.02,252.45l-1.26.29c-.31.07-.6,1.01-.77,1.37l-3.3,1.44c-.97-.08-2.66-.99-3.74-1.59l-1.03-.57c-.26-.15.09-1.04.01-1.38-.36-1.52-.95-3.52-.23-4.92,1.57-3.04,1.99-6.22,2.71-9.54.42-1.92.33-3.8.5-5.82l.46-5.46c.45-5.26-1.52-13.08-3.25-18.11l-1.09-3.17c-2.26-6.54-4.14-5.8-2.81-8.09.86-1.47,1.74-3.54,2.92-4.38,1.44.75,2.74.64,4,.63,2.78.52,3.7,4.15,4.62,6.43l1.7,4.18c.48,1.19.82,2.33,1.12,3.49l.84,3.31c1.38,5.41.02,1.28.97,7.12.5,3.07.14,6.38.17,9.5l.09,9.01-.73,1.6c.69,1.94.28,3.59-.15,5.36l-.76,3.11-.63,3.02c-.13.6-.27,2.18-.37,3.15Z"/>
</svg>