<?xml version="1.0" encoding="UTF-8"?>
<svg id="Camada_1" xmlns="http://www.w3.org/2000/svg" version="1.1" viewBox="0 0 362.15 306.13">
  <!-- Generator: Adobe Illustrator 30.5.1, SVG Export Plug-In . SVG Version: 2.1.4 Build 3)  -->
  <defs>
    <style>
      .st0 {
        fill: #93a3b8;
      }
    </style>
  </defs>
  <path class="st0" d="M251.94,306.13l-.79-28.35c-47.94,2.45-89.25-4.54-128.56-32.25l-24.23-17.07c-15.07-11.05-30.2-20.77-46.88-29.41-16.87-6.67-33.79-11.31-51.48-14.19v-63.31c33.64-4.42,59.4-14.46,86.77-33.83l42.63-29.84c36.07-25.25,80.45-31.84,124.15-29.23l.22-28.65,108.38,62.85-108,62.53-.67-32.05c-17.69-1.89-34.89-1.98-52.25,1.45-15.53,3.52-28.85,10.34-41.72,19.55-19.26,13.78-37.97,27.21-57.78,39.58,20.5,12.82,38.33,25.77,56.99,39.15,19.46,13.96,40.87,22,64.87,21.18l27.62-.94.64-32.4,108.42,62.74-108.34,62.48Z"/>
</svg>