<?xml version="1.0" encoding="UTF-8"?>
<svg id="Camada_1" xmlns="http://www.w3.org/2000/svg" version="1.1" viewBox="0 0 250 250">
  <!-- Generator: Adobe Illustrator 30.1.0, SVG Export Plug-In . SVG Version: 2.1.1 Build 136)  -->
  <g>
    <path d="M23.16,122l15.64-35.44h9.87l15.69,35.44h-10.43l-12.25-30.53h3.95l-12.25,30.53h-10.23ZM31.72,115.11l2.58-7.39h17.32l2.58,7.39h-22.48Z"/>
    <path d="M76.12,122l-15.14-35.44h10.83l12.76,30.68h-6.38l13.06-30.68h9.92l-15.19,35.44h-9.87Z"/>
    <path d="M97.79,122l15.64-35.44h9.87l15.69,35.44h-10.43l-12.25-30.53h3.95l-12.25,30.53h-10.23ZM106.34,115.11l2.58-7.39h17.32l2.58,7.39h-22.48Z"/>
    <path d="M141.83,122v-35.44h10.03v27.49h16.91v7.95h-26.94Z"/>
    <path d="M172.72,122v-35.44h10.02v35.44h-10.02Z"/>
    <path d="M185.63,122l15.64-35.44h9.87l15.7,35.44h-10.43l-12.25-30.53h3.95l-12.25,30.53h-10.23ZM194.19,115.11l2.58-7.39h17.31l2.58,7.39h-22.48Z"/>
  </g>
  <g>
    <path d="M44.81,170.77c-1.75,0-3.39-.37-4.91-1.1-1.52-.73-2.77-1.79-3.72-3.17l2.45-2.88c.82,1.13,1.74,2,2.77,2.6,1.03.61,2.17.91,3.41.91,3.39,0,5.08-2,5.08-6.01v-16.64h-10.71v-3.68h14.9v20.11c0,3.3-.78,5.77-2.35,7.41-1.57,1.64-3.87,2.45-6.92,2.45Z"/>
    <path d="M69.53,170.43l-9.9-29.63h4.36l9.1,27.34h-2.2l9.44-27.34h3.89l9.23,27.34h-2.12l9.23-27.34h4.02l-9.91,29.63h-4.44l-8.63-25.36h1.14l-8.68,25.36h-4.53Z"/>
    <path d="M135.14,170.77c-2.26,0-4.35-.38-6.29-1.14-1.93-.76-3.61-1.83-5.02-3.2-1.41-1.37-2.51-2.97-3.3-4.8-.79-1.83-1.18-3.84-1.18-6.01s.39-4.18,1.18-6.01c.79-1.83,1.89-3.44,3.3-4.8,1.41-1.37,3.08-2.43,4.99-3.2,1.92-.76,4.02-1.14,6.31-1.14s4.34.37,6.24,1.12c1.9.75,3.57,1.81,4.99,3.17,1.42,1.37,2.53,2.97,3.3,4.8.78,1.83,1.16,3.85,1.16,6.05s-.39,4.22-1.16,6.05c-.78,1.83-1.88,3.44-3.3,4.8-1.43,1.37-3.09,2.43-4.99,3.17-1.91.75-3.99,1.12-6.24,1.12ZM135.14,167c1.64,0,3.15-.28,4.55-.85,1.4-.56,2.61-1.37,3.64-2.41,1.03-1.04,1.83-2.26,2.41-3.64.58-1.38.87-2.88.87-4.49s-.29-3.15-.87-4.53c-.58-1.38-1.38-2.59-2.41-3.62-1.03-1.03-2.24-1.83-3.64-2.39-1.4-.56-2.91-.85-4.55-.85s-3.2.28-4.59.85c-1.4.56-2.62,1.36-3.66,2.39-1.04,1.03-1.86,2.24-2.43,3.62-.58,1.38-.87,2.89-.87,4.53s.29,3.1.87,4.49c.58,1.38,1.39,2.6,2.43,3.64,1.04,1.04,2.26,1.85,3.66,2.41,1.4.56,2.93.85,4.59.85ZM144.83,176.61c-.99,0-1.93-.12-2.84-.36-.9-.24-1.81-.62-2.71-1.14-.9-.52-1.83-1.2-2.79-2.03-.96-.83-2-1.86-3.13-3.07l4.53-1.18c.85,1.04,1.66,1.9,2.43,2.56.78.66,1.54,1.14,2.31,1.44.76.3,1.51.44,2.24.44,2.12,0,3.92-.85,5.42-2.54l1.99,2.41c-1.92,2.31-4.4,3.47-7.45,3.47Z"/>
    <path d="M166.16,170.68c-1.92,0-3.61-.35-5.06-1.06-1.45-.71-2.58-1.78-3.39-3.24-.8-1.45-1.21-3.28-1.21-5.48v-12.91h4.06v12.45c0,2.2.53,3.85,1.59,4.95,1.06,1.1,2.55,1.65,4.47,1.65,1.41,0,2.64-.29,3.68-.87,1.04-.58,1.85-1.42,2.41-2.54.57-1.11.85-2.46.85-4.04v-11.6h4.06v22.43h-3.85v-6.05l.64,1.61c-.74,1.5-1.84,2.65-3.3,3.47-1.47.82-3.12,1.23-4.95,1.23Z"/>
    <path d="M187.41,143.68c-.79,0-1.45-.25-1.97-.76-.52-.51-.78-1.13-.78-1.86s.26-1.4.78-1.9c.52-.51,1.18-.76,1.97-.76s1.45.25,1.97.74c.52.49.78,1.11.78,1.84s-.25,1.4-.76,1.93-1.17.78-1.99.78ZM185.38,170.43v-22.43h4.06v22.43h-4.06Z"/>
    <path d="M195.03,170.43v-2.62l14.39-17.86.8,1.4h-14.94v-3.34h18.2v2.67l-14.39,17.82-.93-1.4h15.66v3.34h-18.79Z"/>
  </g>
</svg>